<svg id="Layer_1" data-name="Layer 1" xmlns="http://www.w3.org/2000/svg" viewBox="0 0 1559.86 274.21"><defs><style>.cls-1{fill:#fff}</style></defs><title>Schoology Logo - Horizontal_white</title><path class="cls-1" d="M291.63 428.74c-75.6 0-137.1-61.51-137.1-137.11s61.47-137.1 137.1-137.1S428.74 216 428.74 291.62s-61.51 137.12-137.11 137.12zm0-251.46A114.36 114.36 0 1 0 406 291.62a114.48 114.48 0 0 0-114.37-114.34z" transform="translate(-154.53 -154.53)"/><path class="cls-1" d="M286 299.66c-22.61-5.36-50.27-11.58-50.27-40.75 0-25.59 21.67-41.66 54.14-41.66 26.77 0 55.31 12.79 60.09 45.82l-25.58 3.28c-.3-8.65-.92-15.47-10.13-22.65s-19.92-8.31-27-8.31c-18.48 0-27.68 11-27.68 20.53 0 13.4 15.16 17.56 33.58 22l13.41 3.27c16.64 3.86 46.69 11 46.69 40.47 0 22.89-20.21 44.32-58.89 44.32-15.78 0-32.12-3.27-43.42-11.29-4.49-3.3-18.15-14.59-20.84-38.07l26.77-4.17c-.29 6.25-.29 18.15 10.4 27.36 8.33 7.14 18.77 8.06 28.31 8.06 20.8 0 33-8.06 33-23.23 0-16.06-12.16-19-29.14-22.3zm1239.52 20.58h-38.76v-15.42h64v72.73h-16v-16.78s2.5-2.94-.06.09c-11.57 13.57-28.19 19.72-48.7 19.72-49.9 0-67.78-37.2-67.78-70.69 0-38.68 20.47-73.58 65.76-73.58 21.94 0 53.94 7.8 62.9 45.59l-25.38 2.3c-.9-5.48-5.75-31.14-36.63-31.14-39.56 0-41.28 43-41.28 55.1 0 14.73 2.89 27.4 9 36.65 7.76 12.4 19.58 18.16 33.73 18.16 33.19 0 36.9-27.13 38.37-37.77zm-965.26-3.17c-21.93-5.2-48.76-11.25-48.76-39.53 0-24.83 21-40.41 52.51-40.41 26 0 53.64 12.39 58.27 44.44l-24.81 3.18c-.28-8.38-.88-15-9.82-22s-19.32-8.06-26.22-8.06c-17.93 0-26.84 10.66-26.84 19.93 0 13 14.71 17 32.57 21.34l13 3.17c16.15 3.74 45.29 10.7 45.29 39.24 0 22.21-19.6 43-57.11 43-15.3 0-31.15-3.17-42.11-11-4.34-3.19-17.62-14.14-20.21-36.93l26-4c-.29 6.05-.29 17.6 10.08 26.54 8.07 6.93 18.21 7.82 27.45 7.82 20.19 0 32-7.82 32-22.54 0-15.56-11.79-18.44-28.25-21.62zM770.32 328a67.13 67.13 0 0 1-7.8 23.08c-11.27 20.76-30.59 30-55.7 30-49.92 0-67.82-37.21-67.82-70.68 0-38.68 20.49-73.61 65.81-73.61 21.93 0 54 7.8 62.9 45.6l-25.4 2.33c-.86-5.5-5.76-31.18-36.67-31.18-39.51 0-41.22 43-41.22 55.12 0 14.71 2.89 27.41 8.93 36.66 7.79 12.4 19.64 18.15 33.76 18.15 33.18 0 36.92-27.11 38.35-37.78zm13.85-154.92h23.36v81.65c14.44-15.28 28.28-17.9 41.29-17.9 30 0 41.82 16.75 45.85 30 2.61 8.63 2.61 17.59 2.61 31.14v79.08h-23.37v-71.81c0-17.89 0-28.27-5.49-36.66-5.79-8.35-15-11.53-23.93-11.53-14.74 0-30.6 8.09-35.24 29.14-1.72 7.51-1.72 14.73-1.72 24.81v66.09h-23.36zm202.61 208.04c-47.08 0-67-35.21-67-71 0-30.33 15-73.33 67.8-73.33 45 0 65.77 34.93 65.5 72.15-.24 41.32-24.79 72.18-66.3 72.18zm39.78-91.17c-5.19-26.83-22.79-34.62-38.36-34.62-30.89 0-43.29 23.93-43.29 55.11 0 28.56 11.83 52.22 41.54 52.22 38.37 0 41.26-39.81 41.54-53.68a78.62 78.62 0 0 0-1.43-19.04zm109.39 91.17c-47.05 0-67-35.21-67-71 0-30.33 15-73.33 67.79-73.33 45 0 65.79 34.93 65.53 72.15-.27 41.32-24.77 72.18-66.32 72.18zm39.8-91.17c-5.18-26.83-22.79-34.62-38.37-34.62-30.89 0-43.29 23.93-43.29 55.11 0 28.56 11.84 52.22 41.57 52.22 38.34 0 41.24-39.81 41.52-53.68a76.74 76.74 0 0 0-1.43-19.04zm72.17-116.58v203.72h-22.24V173.37zm90 207.75c-47 0-66.93-35.21-66.93-71 0-30.33 15-73.33 67.83-73.33 45 0 65.77 34.93 65.48 72.15-.3 41.32-24.82 72.18-66.38 72.18zm39.86-91.17c-5.24-26.83-22.85-34.62-38.4-34.62-30.88 0-43.28 23.93-43.28 55.11 0 28.56 11.82 52.22 41.57 52.22 38.35 0 41.23-39.81 41.53-53.68a81.62 81.62 0 0 0-1.43-19.04z" transform="translate(-154.53 -154.53)"/><path class="cls-1" d="M1515.42 84.75h-21.87l-35.1 55.56-34.36-55.56h-25.36l48.56 74.75v63.06h22.09V159.5l49.59-74.75h-3.55z"/><path class="cls-1" d="M1714.39 252.5a15.29 15.29 0 0 1-30.58 0c0-8.34 6.82-14.88 15.42-14.88a14.89 14.89 0 0 1 15.16 14.88zm-26.77 0a11.59 11.59 0 0 0 11.61 11.89c6.44.09 11.35-5.27 11.35-11.8s-4.91-12-11.54-12a11.61 11.61 0 0 0-11.42 11.91zm9.16 7.73h-3.43v-14.9a39.87 39.87 0 0 1 5.7-.45c2.83 0 4.09.45 5.1 1.17a3.81 3.81 0 0 1 1.53 3.18c0 1.82-1.36 3-3.08 3.55v.17c1.46.46 2.18 1.65 2.64 3.65a13.24 13.24 0 0 0 1.08 3.63h-3.62a11.48 11.48 0 0 1-1.17-3.63c-.28-1.54-1.2-2.28-3.09-2.28h-1.64zm.1-8.36h1.63c1.89 0 3.43-.63 3.43-2.17 0-1.36-1-2.29-3.18-2.29a7.91 7.91 0 0 0-1.89.19z" transform="translate(-154.53 -154.53)"/></svg>